<svg xmlns="http://www.w3.org/2000/svg" viewBox="0 0 333.26 333.33"><defs><style>.cls-1{fill:#9374ac;}.cls-2{fill:#ea675c;}.cls-3{fill:#454656;}.cls-4{fill:#6a676e;}</style></defs><title>coccinellepuzzle</title><g id="Calque_3" data-name="Calque 3"><path class="cls-1" d="M234.3,333.31H1.63v.07H234.32Z"/><path class="cls-2" d="M333.18,333.31H234.3l0,.07h98.86"/><path class="cls-1" d="M221.23,225.48a454.44,454.44,0,0,1,4.16-61.5q2.25-16.44,5.67-32.34h0A419,419,0,0,1,243.6,85.75c-12-2.11-19.32-2.39-25.24,1.67-18.6,12.74-30.87,71.61-38.48,114.78a14.11,14.11,0,0,1-12.08,11.65A14.72,14.72,0,0,1,166,214a13.82,13.82,0,0,1-12.7-8.17c-1.2-2.37-20.24-37.85-82.1-39.74A14.06,14.06,0,1,1,72.1,138c42.41,1.3,69.43,16.06,85.65,30.09,12.48-60.78,25.63-90.73,44.72-103.81,16.06-11,33.13-8.69,51.14-5.21A379.55,379.55,0,0,1,284.36,0H1.63V333.31H234.3A445.75,445.75,0,0,1,221.23,225.48Z"/><path class="cls-2" d="M333.1,0H284.36a379.55,379.55,0,0,0-30.75,59q-5.45,13.07-10,26.73a419,419,0,0,0-12.54,45.88A29.32,29.32,0,1,1,225.39,164a454.44,454.44,0,0,0-4.16,61.5A445.75,445.75,0,0,0,234.3,333.31h98.8Z"/><path class="cls-3" d="M252.15,181.32a29.32,29.32,0,1,0-21.09-49.69h0q-3.41,15.88-5.67,32.34A29.3,29.3,0,0,0,252.15,181.32Z"/><path class="cls-4" d="M202.47,64.23c-19.09,13.08-32.24,43-44.72,103.81C141.53,154,114.51,139.25,72.1,138a14.06,14.06,0,1,0-.86,28.1c61.86,1.89,80.9,37.37,82.1,39.74A13.82,13.82,0,0,0,166,214a14.72,14.72,0,0,0,1.76-.11,14.11,14.11,0,0,0,12.08-11.65c7.61-43.17,19.88-102,38.48-114.78,5.92-4.06,13.28-3.78,25.24-1.67q4.56-13.65,10-26.73C235.6,55.54,218.53,53.23,202.47,64.23Z"/></g></svg>