<svg xmlns="http://www.w3.org/2000/svg" viewBox="0 0 333.26 333.33"><defs><style>.cls-1{fill:#ef8975;}.cls-2{fill:#ea675c;}.cls-3{fill:#454656;}.cls-4{fill:#f0ebdf;}</style></defs><title>coccinellepuzzle</title><g id="Calque_3" data-name="Calque 3"><rect class="cls-1" x="156.87" y="333.28" width="31.99" height="0.06"/><path class="cls-2" d="M224.22,0h-6.68c.13,1.33.2,2.67.2,4a43.59,43.59,0,0,1-28.88,41V333.28h144.5V259.84a43.59,43.59,0,1,1,0-33V0H243.44a28.58,28.58,0,0,1-9.61,1.66A28.62,28.62,0,0,1,224.22,0Z"/><path class="cls-2" d="M130.56,4c0-1.37.07-2.71.2-4H122.7a28.53,28.53,0,0,1-9.61,1.66A28.52,28.52,0,0,1,103.49,0H.17V333.28h156.7V44A43.61,43.61,0,0,1,130.56,4ZM55.62,286.9a43.59,43.59,0,1,1,43.59-43.58A43.59,43.59,0,0,1,55.62,286.9Z"/><path class="cls-1" d="M174.15,47.57A43.45,43.45,0,0,1,156.87,44V333.28h32V45A43.47,43.47,0,0,1,174.15,47.57Z"/><path class="cls-3" d="M130.56,4a43.61,43.61,0,0,0,26.31,40V33.57h32V45A43.59,43.59,0,0,0,217.74,4c0-1.37-.07-2.71-.2-4H130.76C130.63,1.28,130.56,2.62,130.56,4Z"/><path class="cls-3" d="M156.87,33.57V44a43.71,43.71,0,0,0,32,1V33.57Z"/><path class="cls-3" d="M293,199.73a43.59,43.59,0,1,0,40.34,60.11v-33A43.61,43.61,0,0,0,293,199.73Z"/><circle class="cls-3" cx="55.62" cy="243.32" r="43.59" transform="translate(-190.46 201.59) rotate(-67.5)"/><path class="cls-4" d="M233.83,1.61A28.58,28.58,0,0,0,243.44,0H224.22A28.62,28.62,0,0,0,233.83,1.61Z"/><path class="cls-4" d="M122.7,0H103.49a28.52,28.52,0,0,0,9.6,1.66A28.53,28.53,0,0,0,122.7,0Z"/><rect class="cls-2" x="0.1" y="-0.05" width="0.07" height="333.33"/></g></svg>