<svg xmlns="http://www.w3.org/2000/svg" viewBox="0 0 333.26 333.33"><defs><style>.cls-1{fill:#9374ac;}.cls-2{fill:#ea675c;}.cls-3{fill:#6a676e;}</style></defs><title>coccinellepuzzle</title><g id="Calque_3" data-name="Calque 3"><path class="cls-1" d="M-.3,187.5a86.49,86.49,0,0,1,14.5,22c-.06-.15-.12-.29-.19-.44C38.3,193.63,38.19,180.62,37.5,108.45c-.16-16.53-.33-35.25-.22-57.59a13,13,0,0,1,22.59-8.63C62.79,45.29,81.09,53.6,109,56c16.88,1.45,48.19,1.4,68.42-15.1A13,13,0,1,1,193.82,61c-27.45,22.41-66.62,22.66-87.54,20.81-13.77-1.21-29.84-4.33-43.08-9.11,0,13,.14,24.75.25,35.52.41,43.7.64,67.76-5.33,86.18-6.1,18.85-17.95,29.56-37.18,40.8,0-.15,0-.3-.05-.46a85.22,85.22,0,0,1-.52,20.1c-.77,5.38-4.07,10.47-9.59,15.2a331.12,331.12,0,0,1,52.39,63.4H333V1.75H-.3Z"/><path class="cls-2" d="M-.3,333.42H63.17A331.12,331.12,0,0,0,10.78,270,65.47,65.47,0,0,1-.3,277.5Z"/><path class="cls-3" d="M10.78,270c5.52-4.73,8.82-9.82,9.59-15.2a85.22,85.22,0,0,0,.52-20.1c-.07-.76-.16-1.53-.25-2.29,0-.32-.07-.64-.12-1-.14-1-.29-2-.47-3,0-.19-.07-.38-.1-.56-.16-.86-.33-1.72-.52-2.57-.09-.41-.19-.82-.28-1.23-.14-.6-.29-1.2-.44-1.79l-.36-1.34c-.16-.56-.32-1.11-.49-1.66s-.27-.89-.41-1.34-.38-1.13-.57-1.69c-.14-.41-.28-.82-.43-1.22-.33-.91-.67-1.81-1-2.7-.15-.38-.32-.76-.49-1.15q-.35-.83-.72-1.65a86.49,86.49,0,0,0-14.5-22v72.67Q5.34,264.94,10.78,270Z"/><path class="cls-3" d="M-.3,277.5A65.47,65.47,0,0,0,10.78,270Q5.34,264.94-.3,260.17Z"/><path class="cls-3" d="M15.41,212.33c.37.89.71,1.79,1,2.7.15.4.29.81.43,1.22.19.56.39,1.12.57,1.69s.28.89.41,1.34.33,1.1.49,1.66l.36,1.34c.15.59.3,1.19.44,1.79.09.41.19.82.28,1.23.19.85.36,1.71.52,2.57,0,.18.07.37.1.56.18,1,.33,2,.47,3,.05.32.08.64.12,1,.09.76.18,1.53.25,2.29,0,.16,0,.31.05.46,19.23-11.24,31.08-22,37.18-40.8,6-18.42,5.74-42.48,5.33-86.18-.11-10.77-.22-22.48-.25-35.52,13.24,4.78,29.31,7.9,43.08,9.11,20.92,1.85,60.09,1.6,87.54-20.81a13,13,0,1,0-16.41-20.09C157.18,57.39,125.87,57.44,109,56c-27.9-2.39-46.2-10.7-49.12-13.76a13,13,0,0,0-22.59,8.63c-.11,22.34.06,41.06.22,57.59.69,72.17.8,85.18-23.49,100.64.07.15.13.29.19.44q.38.83.72,1.65C15.09,211.57,15.26,212,15.41,212.33Z"/><path class="cls-3" d="M19.15,224.07c-.14-.6-.29-1.2-.44-1.79C18.86,222.87,19,223.47,19.15,224.07Z"/><path class="cls-3" d="M20.89,234.72c-.07-.76-.16-1.53-.25-2.29C20.73,233.19,20.82,234,20.89,234.72Z"/><path class="cls-3" d="M20.52,231.47c-.14-1-.29-2-.47-3C20.23,229.43,20.38,230.45,20.52,231.47Z"/><path class="cls-3" d="M16.45,215c-.33-.91-.67-1.81-1-2.7C15.78,213.22,16.12,214.12,16.45,215Z"/><path class="cls-3" d="M14.2,209.53q.38.83.72,1.65Q14.58,210.36,14.2,209.53Z"/><path class="cls-3" d="M17.45,217.94c-.18-.57-.38-1.13-.57-1.69C17.07,216.81,17.27,217.37,17.45,217.94Z"/><path class="cls-3" d="M18.35,220.94c-.16-.56-.32-1.11-.49-1.66C18,219.83,18.19,220.38,18.35,220.94Z"/><path class="cls-3" d="M20,227.87c-.16-.86-.33-1.72-.52-2.57C19.62,226.15,19.79,227,20,227.87Z"/></g></svg>