<svg xmlns="http://www.w3.org/2000/svg" viewBox="0 0 333.26 333.33"><defs><style>.cls-1{fill:#9374ac;}.cls-2{fill:#ea675c;}.cls-3{fill:#454656;}.cls-4{fill:#6a676e;}</style></defs><title>coccinellepuzzle</title><g id="Calque_3" data-name="Calque 3"><path class="cls-1" d="M113.48.12c1.85,1.16,3.65,2.26,5.38,3.33,17.19,10.6,32,19.76,35.77,38.16,3.33,16.4-3,36.77-22.56,72.63-5.45,10-10.44,18.86-14.85,26.68-7.65,13.6-13.7,24.34-17.35,32.47-3.58,8-3.66,10.88-3.61,11.6,1.27,1.52,6.55,4.71,27.27,9.69,28.44,6.85,48.34,19.46,60.82,38.55,10.76,16.47,14.08,34.77,16.56,52.1A14.05,14.05,0,0,1,189,301.23a13.54,13.54,0,0,1-2,.14,14.07,14.07,0,0,1-13.9-12.07C168.42,256.69,161.67,232.77,117,222,95.41,216.82,77,211.3,70.47,196.22c-7.25-16.65,2.61-34.17,22.26-69.09,4.37-7.75,9.31-16.53,14.67-26.35,9.55-17.53,22-42.16,19.68-53.57-1.21-6-8.28-10.75-21.65-19A395.49,395.49,0,0,1,74.56,99.09,348.25,348.25,0,0,1,31,160.61,307,307,0,0,1,0,190.88V333.3H333.22V0H113.52A.75.75,0,0,1,113.48.12Z"/><path class="cls-2" d="M0,91.14a43.61,43.61,0,0,1,74.6,8,395.49,395.49,0,0,0,30.87-70.91q4.47-13.74,8-28.06a.75.75,0,0,0,0-.16H0Z"/><path class="cls-2" d="M0,143.25v47.63a307,307,0,0,0,31-30.27A43.51,43.51,0,0,1,0,143.25Z"/><path class="cls-3" d="M34.9,73.62A43.54,43.54,0,0,0,0,91.14v52.11a43.51,43.51,0,0,0,31,17.36A348.25,348.25,0,0,0,74.56,99.09,43.6,43.6,0,0,0,34.9,73.62Z"/><path class="cls-4" d="M127.08,47.21c2.33,11.41-10.13,36-19.68,53.57-5.36,9.82-10.3,18.6-14.67,26.35-19.65,34.92-29.51,52.44-22.26,69.09C77,211.3,95.41,216.82,117,222c44.72,10.76,51.47,34.68,56.13,67.29A14.07,14.07,0,0,0,187,301.37a13.54,13.54,0,0,0,2-.14,14.05,14.05,0,0,0,11.93-15.9c-2.48-17.33-5.8-35.63-16.56-52.1-12.48-19.09-32.38-31.7-60.82-38.55-20.72-5-26-8.17-27.27-9.69-.05-.72,0-3.63,3.61-11.6,3.65-8.13,9.7-18.87,17.35-32.47,4.41-7.82,9.4-16.7,14.85-26.68C151.63,78.38,158,58,154.63,41.61c-3.73-18.4-18.58-27.56-35.77-38.16-1.73-1.07-3.53-2.17-5.38-3.33q-3.56,14.3-8,28.06C118.8,36.46,125.87,41.22,127.08,47.21Z"/></g></svg>