<svg xmlns="http://www.w3.org/2000/svg" viewBox="0 0 333.26 333.33"><defs><style>.cls-1{fill:#9374ac;}.cls-2{fill:#ea675c;}.cls-3{fill:#ef8975;}.cls-4{fill:#454656;}</style></defs><title>coccinellepuzzle</title><g id="Calque_3" data-name="Calque 3"><path class="cls-1" d="M188.73,251.65c-4.88.31-9.77.47-14.71.47-5.81,0-11.56-.21-17.28-.64C98,247.07,44,220.3,0,177.85V333.56H333.23V191.21C291.54,226.45,242.06,248.26,188.73,251.65Z"/><path class="cls-2" d="M0,.23V79.69a43.55,43.55,0,0,1,21.87,37.78A43.57,43.57,0,0,1,0,155.26v22.59C44,220.3,98,247.07,156.74,251.48V.23Z"/><path class="cls-2" d="M324.66,117.47a43.39,43.39,0,0,1,8.57-26V.23H188.73V251.65c53.33-3.39,102.81-25.2,144.5-60.44V143.42A43.41,43.41,0,0,1,324.66,117.47Z"/><path class="cls-3" d="M156.74.23V251.48c5.72.43,11.47.64,17.28.64,4.94,0,9.83-.16,14.71-.47V.23Z"/><path class="cls-4" d="M324.66,117.47a43.41,43.41,0,0,0,8.57,25.95V91.51A43.39,43.39,0,0,0,324.66,117.47Z"/><path class="cls-4" d="M21.91,117.47A43.55,43.55,0,0,0,0,79.69v75.57A43.57,43.57,0,0,0,21.91,117.47Z"/><path class="cls-1" d="M333.23,191.21V333.56h.07V191.15Z"/><path class="cls-2" d="M333.3,91.41V.23h-.07V91.51Z"/><path class="cls-2" d="M333.23,143.42v47.79l.07-.06V143.52A.86.86,0,0,0,333.23,143.42Z"/><path class="cls-4" d="M333.23,143.42a.86.86,0,0,1,.07.1V91.41l-.07.1Z"/></g></svg>