<svg xmlns="http://www.w3.org/2000/svg" viewBox="0 0 333.26 333.33"><defs><style>.cls-1{fill:#9374ac;}.cls-2{fill:#ea675c;}.cls-3{fill:#454656;}.cls-4{fill:#6a676e;}</style></defs><title>coccinellepuzzle</title><g id="Calque_3" data-name="Calque 3"><path class="cls-1" d="M113.68,333.36h219.7v-.06H113.69Z"/><path class="cls-2" d="M0,333.36H113.68v-.06H0"/><path class="cls-1" d="M94.38,59c18-3.47,35.07-5.77,51.13,5.22,19.09,13.08,32.24,43,44.72,103.81,16.23-14,43.24-28.79,85.65-30.08a14.05,14.05,0,1,1,.86,28.09c-61.86,1.89-80.9,37.37-82.1,39.74a13.82,13.82,0,0,1-12.7,8.17,14.72,14.72,0,0,1-1.76-.11,14.12,14.12,0,0,1-12.08-11.65c-7.61-43.16-19.88-102-38.48-114.78-5.92-4.06-13.27-3.77-25.22-1.67a424.71,424.71,0,0,1,12.13,44q3.93,18,6.41,36.72a455.39,455.39,0,0,1,3.82,59A445.32,445.32,0,0,1,113.69,333.3H333.38V0H63.63A379.85,379.85,0,0,1,94.38,59Z"/><path class="cls-2" d="M.12,227A43.43,43.43,0,0,1,3.3,243.33,43.52,43.52,0,0,1,.12,259.67V333.3H113.69a445.32,445.32,0,0,0,13.07-107.83,455.39,455.39,0,0,0-3.82-59,29.32,29.32,0,1,1-6.41-36.72,424.71,424.71,0,0,0-12.13-44Q99.81,72.07,94.38,59A379.85,379.85,0,0,0,63.63,0H.12Z"/><path class="cls-3" d="M3.3,243.33A43.43,43.43,0,0,0,.12,227v32.67A43.52,43.52,0,0,0,3.3,243.33Z"/><path class="cls-3" d="M68.12,152a29.32,29.32,0,0,0,54.82,14.47q-2.46-18.69-6.41-36.72A29.32,29.32,0,0,0,68.12,152Z"/><path class="cls-4" d="M129.62,87.4c18.6,12.74,30.87,71.62,38.48,114.78a14.12,14.12,0,0,0,12.08,11.65,14.72,14.72,0,0,0,1.76.11,13.82,13.82,0,0,0,12.7-8.17c1.2-2.37,20.24-37.85,82.1-39.74a14.05,14.05,0,1,0-.86-28.09C233.47,139.23,206.46,154,190.23,168c-12.48-60.77-25.63-90.73-44.72-103.81-16.06-11-33.12-8.69-51.13-5.22q5.43,13.07,10,26.74C116.35,83.63,123.7,83.34,129.62,87.4Z"/></g></svg>