<svg xmlns="http://www.w3.org/2000/svg" viewBox="0 0 333.26 333.33"><defs><style>.cls-1{fill:none;stroke:#1a171b;stroke-miterlimit:10;stroke-width:0.05px;}.cls-2{fill:#9374ac;}.cls-3{fill:#ea675c;}.cls-4{fill:#6a676e;}</style></defs><title>coccinellepuzzle</title><g id="Calque_3" data-name="Calque 3"><polygon class="cls-1" points="332.56 1.2 332.56 -0.46 -0.7 -0.46 -0.7 332.87 1.09 332.87 1.09 1.2 332.56 1.2"/><path class="cls-2" d="M332.56,273v-6c-6-4.77-9.24-9.42-9.24-13.56A88.24,88.24,0,0,1,325,236.25a.3.3,0,0,0,0,.1c-21-11.88-33.78-22.7-40.19-42.52-6-18.42-5.74-42.48-5.33-86.18.1-10.77.21-22.48.25-35.52-13.25,4.78-29.31,7.9-43.08,9.11-20.92,1.85-60.1,1.6-87.55-20.81a13,13,0,0,1,16.41-20.09c20.23,16.5,51.55,16.55,68.42,15.1,27.9-2.39,46.21-10.7,49.12-13.76a13,13,0,0,1,22.6,8.63c.11,22.34-.08,41.06-.23,57.59-.71,75.61-.8,86.29,27.13,102.88V1.2H1.09V332.87H283.86A332.92,332.92,0,0,1,332.56,273Z"/><path class="cls-3" d="M332.56,273a332.92,332.92,0,0,0-48.7,59.9h48.7Z"/><path class="cls-4" d="M332.36,214l-.35.74c-.33.74-.66,1.48-1,2.22-.09.22-.19.43-.28.65q-.57,1.36-1.11,2.76c-.11.28-.21.57-.32.86-.25.66-.49,1.31-.72,2-.13.35-.25.71-.37,1.08-.21.62-.42,1.25-.62,1.88-.1.33-.21.66-.31,1q-.37,1.26-.72,2.52l-.1.34c-.27,1-.53,2.05-.77,3.09a1.36,1.36,0,0,0,0,.17c-.23,1-.45,2-.64,3a88.24,88.24,0,0,0-1.71,17.17c0,4.14,3.27,8.79,9.24,13.56V213.55C332.5,213.7,332.42,213.84,332.36,214Z"/><path class="cls-4" d="M325.71,233.09c.24-1,.5-2.07.77-3.09l.1-.34q.35-1.26.72-2.52c.1-.33.21-.66.31-1,.2-.63.41-1.26.62-1.88.12-.37.24-.73.37-1.08.23-.67.47-1.32.72-2,.11-.29.21-.58.32-.86q.54-1.4,1.11-2.76c.09-.22.19-.43.28-.65.32-.74.65-1.48,1-2.22l.35-.74.2-.44v-2.76c-27.93-16.59-27.84-27.27-27.13-102.88.15-16.53.34-35.25.23-57.59a13,13,0,0,0-22.6-8.63c-2.91,3.06-21.22,11.37-49.12,13.76-16.87,1.45-48.19,1.4-68.42-15.1a13,13,0,0,0-16.41,20.09c27.45,22.41,66.63,22.66,87.55,20.81,13.77-1.21,29.83-4.33,43.08-9.11,0,13-.15,24.75-.25,35.52-.41,43.7-.64,67.76,5.33,86.18,6.41,19.82,19.17,30.64,40.19,42.52a.3.3,0,0,1,0-.1c.2-1,.41-2,.64-3A1.36,1.36,0,0,1,325.71,233.09Z"/></g></svg>