<svg xmlns="http://www.w3.org/2000/svg" viewBox="0 0 333.26 333.33"><defs><style>.cls-1{fill:#9374ac;}.cls-2{fill:#ea675c;}.cls-3{fill:#454656;}.cls-4{fill:#f0ebdf;}.cls-5{fill:#6a676e;}.cls-6{fill:#d0cac3;}</style></defs><title>coccinellepuzzle</title><g id="Calque_3" data-name="Calque 3"><path class="cls-1" d="M250.33,126.84c-.43-.62-.87-1.22-1.32-1.83Q249.69,125.91,250.33,126.84Z"/><path class="cls-1" d="M109.53,112.91c-1.33,1.08-2.63,2.22-3.87,3.39C106.9,115.13,108.2,114,109.53,112.91Z"/><path class="cls-1" d="M248.55,124.4c-.38-.49-.76-1-1.15-1.45C247.79,123.43,248.17,123.91,248.55,124.4Z"/><path class="cls-1" d="M103.35,118.59c-.51.54-1,1.09-1.52,1.64C102.33,119.68,102.84,119.13,103.35,118.59Z"/><path class="cls-1" d="M111.56,111.33q-.74.56-1.47,1.14Q110.82,111.89,111.56,111.33Z"/><path class="cls-1" d="M98,124.91c-.47.62-.93,1.26-1.37,1.9C97.06,126.17,97.52,125.53,98,124.91Z"/><path class="cls-1" d="M103.79,118.15c.48-.5,1-1,1.47-1.46C104.76,117.17,104.27,117.65,103.79,118.15Z"/><path class="cls-1" d="M.17,267.53v5.86c1.15-1.11,2.31-2.2,3.47-3.29C2.4,269.24,1.25,268.39.17,267.53Z"/><path class="cls-1" d="M101.61,120.48q-1.77,2-3.39,4.12Q99.84,122.47,101.61,120.48Z"/><path class="cls-1" d="M246.92,122.35q-.67-.82-1.38-1.62Q246.25,121.53,246.92,122.35Z"/><path class="cls-1" d="M118.6,106.71c-.54.3-1.07.62-1.59.93C117.53,107.33,118.06,107,118.6,106.71Z"/><path class="cls-1" d="M239.22,114.45c-1.29-1.13-2.62-2.2-4-3.23C236.6,112.25,237.93,113.32,239.22,114.45Z"/><path class="cls-1" d="M234.68,110.82c-.51-.37-1-.74-1.56-1.1C233.65,110.08,234.17,110.45,234.68,110.82Z"/><path class="cls-1" d="M230.3,107.87c-.72-.44-1.45-.88-2.2-1.3C228.85,107,229.58,107.43,230.3,107.87Z"/><path class="cls-1" d="M232.47,109.27c-.55-.36-1.1-.72-1.66-1.07C231.37,108.55,231.92,108.91,232.47,109.27Z"/><path class="cls-1" d="M113.8,109.72c-.54.37-1.06.74-1.58,1.12C112.74,110.46,113.26,110.09,113.8,109.72Z"/><path class="cls-1" d="M241.68,116.7c.5.48,1,1,1.48,1.47C242.67,117.67,242.18,117.18,241.68,116.7Z"/><path class="cls-1" d="M241.15,116.2c-.47-.45-1-.88-1.43-1.31C240.2,115.32,240.68,115.75,241.15,116.2Z"/><path class="cls-1" d="M116.42,108c-.71.44-1.41.9-2.1,1.36C115,108.9,115.71,108.44,116.42,108Z"/><path class="cls-1" d="M245.26,120.41c-.57-.64-1.16-1.27-1.76-1.89C244.1,119.14,244.69,119.77,245.26,120.41Z"/><path class="cls-1" d="M1.14,211.89c0,.09-.09.19-.14.28A112.08,112.08,0,0,1,26.34,179c.89-.81,1.8-1.59,2.72-2.37l.66-.56c.9-.75,1.81-1.5,2.73-2.22l.53-.41c.82-.64,1.65-1.26,2.48-1.88l.65-.48c1-.68,1.91-1.36,2.88-2l.71-.48q1.36-.92,2.76-1.8l.37-.24c1-.64,2.07-1.26,3.11-1.88l.73-.42c1.07-.61,2.14-1.22,3.23-1.8l.24-.12c1-.56,2.11-1.1,3.17-1.63l.64-.31q1.68-.82,3.39-1.59l.52-.23c1.08-.47,2.17-.94,3.27-1.39l.41-.17c1.17-.47,2.36-.92,3.56-1.36l.66-.24q3.63-1.31,7.38-2.38l.77-.22c1.21-.34,2.44-.66,3.67-1l.56-.14c1.09-.26,2.18-.5,3.28-.73l.87-.18c1.19-.24,2.39-.46,3.6-.67l.39-.07a67.11,67.11,0,0,1,10.14-23c-.54.78-1.07,1.57-1.58,2.38C65.34,109.29,46.36,78,46.36,42.86a16.76,16.76,0,0,1,33.51,0c0,26.1,15.94,49.19,40.22,63l-.65.37A67,67,0,0,1,152,97.86h42.95a67.12,67.12,0,0,1,32.72,8.47c-.45-.25-.9-.51-1.36-.75C250.28,91.71,266,68.77,266,42.86a16.76,16.76,0,0,1,33.51,0c0,34.81-18.67,65.91-47.76,86.09-.4-.62-.81-1.25-1.24-1.86a67,67,0,0,1,10.16,23.13l1.59.27,1.85.32c1.19.21,2.37.45,3.55.69l1.27.26c1.55.34,3.08.7,4.6,1.09l1.64.43c1,.28,2.07.56,3.1.86l1.79.54c1,.31,2.06.64,3.08,1l1.56.52q2.24.76,4.44,1.61l.73.29c1.25.49,2.49,1,3.73,1.53.48.2,1,.42,1.44.63,1,.45,2,.91,3,1.38l1.42.68c1.14.55,2.27,1.13,3.38,1.71l.85.44q2.08,1.13,4.12,2.31l.92.56c1,.63,2.07,1.26,3.09,1.92l1.23.8c.94.62,1.87,1.26,2.79,1.9l1.11.79c1.25.9,2.49,1.81,3.69,2.76a101.73,101.73,0,0,1,12.71,11.87V1.69H.17V211.32Z"/><path class="cls-2" d="M131.53,328.32a28.45,28.45,0,0,1-8.64,5.05h7.87A43.88,43.88,0,0,1,131.53,328.32Z"/><path class="cls-2" d="M224,333.37a28.24,28.24,0,0,1-7-3.77c.22,1.24.4,2.49.52,3.77Z"/><path class="cls-2" d="M205.31,307c0-.15,0-.3,0-.45,0-.53,0-1.06,0-1.59l-2,.14C204,305.72,204.68,306.36,205.31,307Z"/><path class="cls-2" d="M261.25,298.67a28.56,28.56,0,0,1-17.63,34.7h89.74V277.48C317.16,286.35,292.27,293.6,261.25,298.67Z"/><path class="cls-2" d="M84.57,306.56a28.43,28.43,0,0,1,.9-7.13c-36.52-7.08-66-18.35-81.83-29.33-1.16,1.09-2.32,2.18-3.47,3.29v60H103.31A28.54,28.54,0,0,1,84.57,306.56Z"/><path class="cls-2" d="M141.55,308.55c.69-.77,1.4-1.52,2.14-2.24l-2.07-.1c0,.12,0,.23,0,.35C141.63,307.23,141.59,307.9,141.55,308.55Z"/><path class="cls-3" d="M141.55,308.55a28.45,28.45,0,0,1-10,19.77,43.88,43.88,0,0,0-.77,5.05h86.78c-.12-1.28-.3-2.53-.52-3.77A28.48,28.48,0,0,1,205.31,307c-.63-.65-1.29-1.29-2-1.9q-15.14,1-31.25,1.46c-9.61.26-19.1.15-28.41-.26C143,307,142.24,307.78,141.55,308.55Z"/><path class="cls-4" d="M262.36,306.56a28.54,28.54,0,0,0-1.11-7.89c-16.95,2.78-35.72,4.91-55.9,6.3,0,.53,0,1.06,0,1.59,0,.15,0,.3,0,.45A43.38,43.38,0,0,1,217,329.6a28.24,28.24,0,0,0,7,3.77h19.58A28.54,28.54,0,0,0,262.36,306.56Z"/><path class="cls-4" d="M217,329.6A43.38,43.38,0,0,0,205.31,307,28.48,28.48,0,0,0,217,329.6Z"/><path class="cls-4" d="M131.53,328.32a43.47,43.47,0,0,1,10-19.77c0-.65.08-1.32.08-2,0-.12,0-.23,0-.35a400.63,400.63,0,0,1-56.15-6.78,28.57,28.57,0,0,0,17.84,33.94h19.58A28.45,28.45,0,0,0,131.53,328.32Z"/><path class="cls-4" d="M141.55,308.55a43.47,43.47,0,0,0-10,19.77A28.45,28.45,0,0,0,141.55,308.55Z"/><path class="cls-5" d="M254.06,149.36c1,.11,2,.22,2.95.35C256,149.58,255.05,149.47,254.06,149.36Z"/><path class="cls-5" d="M96,148.9l-1.18.1Z"/><path class="cls-5" d="M262.25,150.49l-1.59-.27c-.46-.08-.93-.13-1.4-.2C260.26,150.17,261.26,150.32,262.25,150.49Z"/><path class="cls-5" d="M308.74,167.32c1,.63,2.07,1.26,3.09,1.92C310.81,168.58,309.78,168,308.74,167.32Z"/><path class="cls-5" d="M299.47,162.3c1.14.55,2.27,1.13,3.38,1.71C301.74,163.43,300.61,162.85,299.47,162.3Z"/><path class="cls-5" d="M303.7,164.45q2.08,1.13,4.12,2.31Q305.78,165.58,303.7,164.45Z"/><path class="cls-5" d="M295,160.24c1,.45,2,.91,3,1.38C297.05,161.15,296,160.69,295,160.24Z"/><path class="cls-5" d="M317,172.73c1.25.9,2.49,1.82,3.69,2.76C319.45,174.54,318.21,173.63,317,172.73Z"/><path class="cls-5" d="M86.28,150.09l-.39.07,1-.16Z"/><path class="cls-5" d="M100.89,148.61l-1,0Z"/><path class="cls-5" d="M241.59,148.53c1.71,0,3.41.11,5.11.21C245,148.64,243.3,148.57,241.59,148.53Z"/><path class="cls-5" d="M248.77,148.89c1,.07,2.07.14,3.09.24C250.84,149,249.8,149,248.77,148.89Z"/><path class="cls-5" d="M91.35,149.37l-1,.12Z"/><path class="cls-5" d="M313.06,170c.94.62,1.87,1.26,2.79,1.9C314.93,171.3,314,170.66,313.06,170Z"/><path class="cls-5" d="M35.46,171.6l.65-.48Z"/><path class="cls-5" d="M268.92,151.76c1.55.34,3.08.7,4.6,1.09C272,152.46,270.47,152.1,268.92,151.76Z"/><path class="cls-5" d="M57.34,158.83l.52-.23Z"/><path class="cls-5" d="M61.13,157.21l.41-.17Z"/><path class="cls-5" d="M275.16,153.28c1,.28,2.07.56,3.1.86C277.23,153.84,276.2,153.56,275.16,153.28Z"/><path class="cls-5" d="M53.31,160.73l.64-.31Z"/><path class="cls-5" d="M320.65,175.49a43.54,43.54,0,1,1-79.06-27q-1.49,0-3,0H105.09A43.54,43.54,0,1,1,26.34,179,112.08,112.08,0,0,0,1,212.17c-.28.57-.55,1.15-.83,1.72v53.64c1.08.86,2.23,1.71,3.47,2.57,47.61-44.57,106.61-71,170.51-71,58.93,0,113.7,22.45,159.21,60.91V187.36A101.73,101.73,0,0,0,320.65,175.49Z"/><path class="cls-5" d="M77.58,151.88l.56-.14Z"/><path class="cls-5" d="M65.1,155.68l.66-.24Z"/><path class="cls-5" d="M73.14,153.06l.77-.22Z"/><path class="cls-5" d="M264.1,150.81c1.19.21,2.37.45,3.55.69C266.47,151.26,265.29,151,264.1,150.81Z"/><path class="cls-5" d="M280.05,154.68c1,.31,2.06.64,3.08,1C282.11,155.32,281.08,155,280.05,154.68Z"/><path class="cls-5" d="M32.45,173.89l.53-.41Z"/><path class="cls-5" d="M39,169.1l.71-.48Z"/><path class="cls-5" d="M29.06,176.67l.66-.56Z"/><path class="cls-5" d="M289.86,158.08c1.25.49,2.49,1,3.73,1.53C292.35,159.08,291.11,158.57,289.86,158.08Z"/><path class="cls-5" d="M42.46,166.82l.37-.24Z"/><path class="cls-5" d="M45.94,164.7l.73-.42Z"/><path class="cls-5" d="M284.69,156.18q2.24.76,4.44,1.61Q286.93,157,284.69,156.18Z"/><path class="cls-5" d="M81.42,151l.87-.18Z"/><path class="cls-5" d="M49.9,162.48l.24-.12Z"/><path class="cls-5" d="M3.64,270.1c15.85,11,45.31,22.25,81.83,29.33a28.53,28.53,0,0,1,56.15,6.78l2.07.1a43.56,43.56,0,0,1,59.66-1.2l2-.14a28.53,28.53,0,0,1,55.9-6.3c31-5.07,55.91-12.32,72.11-21.19V260.05c-45.51-38.46-100.28-60.91-159.21-60.91C110.25,199.14,51.25,225.53,3.64,270.1Z"/><path class="cls-5" d="M172.1,306.57q16.1-.45,31.25-1.46a43.56,43.56,0,0,0-59.66,1.2C153,306.72,162.49,306.83,172.1,306.57Z"/><path class="cls-5" d="M233.83,278A28.53,28.53,0,0,0,205.35,305c20.18-1.39,39-3.52,55.9-6.3A28.54,28.54,0,0,0,233.83,278Z"/><path class="cls-5" d="M113.1,278a28.53,28.53,0,0,0-27.63,21.4,400.63,400.63,0,0,0,56.15,6.78A28.53,28.53,0,0,0,113.1,278Z"/><path class="cls-4" d="M267.65,151.5l1.27.26Z"/><path class="cls-4" d="M311.83,169.24l1.23.8Z"/><path class="cls-4" d="M273.52,152.85l1.64.43Z"/><path class="cls-4" d="M307.82,166.76l.92.56Z"/><path class="cls-4" d="M283.13,155.66l1.56.52Z"/><path class="cls-4" d="M289.13,157.79l.73.29Z"/><path class="cls-4" d="M298.05,161.62l1.42.68Z"/><path class="cls-4" d="M302.85,164l.85.44Z"/><path class="cls-4" d="M278.26,154.14l1.79.54Z"/><path class="cls-4" d="M315.85,171.94l1.11.79Z"/><path class="cls-4" d="M262.25,150.49l1.85.32Z"/><path class="cls-4" d="M293.59,159.61c.48.2,1,.42,1.44.63C294.55,160,294.07,159.81,293.59,159.61Z"/><path class="cls-4" d="M257,149.71c-1-.13-2-.24-2.95-.35l-2.2-.23c-1-.1-2.06-.17-3.09-.24l-2.07-.15c-1.7-.1-3.4-.17-5.11-.21a43.54,43.54,0,1,0,79.06,27c-1.2-.94-2.44-1.86-3.69-2.76l-1.11-.79c-.92-.64-1.85-1.28-2.79-1.9l-1.23-.8c-1-.66-2.05-1.29-3.09-1.92l-.92-.56q-2-1.19-4.12-2.31l-.85-.44c-1.11-.58-2.24-1.16-3.38-1.71l-1.42-.68c-1-.47-2-.93-3-1.38-.48-.21-1-.43-1.44-.63-1.24-.53-2.48-1-3.73-1.53l-.73-.29q-2.2-.84-4.44-1.61l-1.56-.52c-1-.34-2.05-.67-3.08-1l-1.79-.54c-1-.3-2.06-.58-3.1-.86l-1.64-.43c-1.52-.39-3-.75-4.6-1.09l-1.27-.26c-1.18-.24-2.36-.48-3.55-.69l-1.85-.32c-1-.17-2-.32-3-.47Z"/><path class="cls-4" d="M39.7,168.62q1.36-.92,2.76-1.8Q41.07,167.71,39.7,168.62Z"/><path class="cls-4" d="M65.76,155.44q3.63-1.31,7.38-2.38Q69.39,154.14,65.76,155.44Z"/><path class="cls-4" d="M36.11,171.12c1-.68,1.91-1.36,2.88-2C38,169.76,37.06,170.44,36.11,171.12Z"/><path class="cls-4" d="M33,173.48c.82-.64,1.65-1.26,2.48-1.88C34.63,172.22,33.8,172.84,33,173.48Z"/><path class="cls-4" d="M26.34,179c.89-.81,1.8-1.59,2.72-2.37C28.14,177.45,27.23,178.23,26.34,179Z"/><path class="cls-4" d="M82.29,150.83c1.19-.24,2.39-.46,3.6-.67C84.68,150.37,83.48,150.59,82.29,150.83Z"/><path class="cls-4" d="M73.91,152.84c1.21-.34,2.44-.66,3.67-1C76.35,152.18,75.12,152.5,73.91,152.84Z"/><path class="cls-4" d="M54,160.42q1.68-.82,3.39-1.59Q55.63,159.6,54,160.42Z"/><path class="cls-4" d="M57.86,158.6c1.08-.47,2.17-.94,3.27-1.39C60,157.66,58.94,158.13,57.86,158.6Z"/><path class="cls-4" d="M61.54,157c1.17-.47,2.36-.92,3.56-1.36C63.9,156.12,62.71,156.57,61.54,157Z"/><path class="cls-4" d="M42.83,166.58c1-.64,2.07-1.26,3.11-1.88C44.9,165.32,43.85,165.94,42.83,166.58Z"/><path class="cls-4" d="M46.67,164.28c1.07-.61,2.14-1.22,3.23-1.8C48.81,163.06,47.74,163.67,46.67,164.28Z"/><path class="cls-4" d="M78.14,151.74c1.09-.26,2.18-.5,3.28-.73C80.32,151.24,79.23,151.48,78.14,151.74Z"/><path class="cls-4" d="M50.14,162.36c1-.56,2.11-1.1,3.17-1.63C52.25,161.26,51.19,161.8,50.14,162.36Z"/><path class="cls-4" d="M29.72,176.11c.9-.75,1.81-1.5,2.73-2.22C31.53,174.61,30.62,175.36,29.72,176.11Z"/><path class="cls-4" d="M69.56,217.21a43.55,43.55,0,0,0,35.53-68.7h0c-1.4,0-2.8,0-4.19.1l-1,0c-1.29.06-2.57.14-3.85.25l-1.18.1c-1.17.11-2.34.23-3.51.37l-1,.12c-1.16.15-2.32.32-3.47.51l-1,.16c-1.21.21-2.41.43-3.6.67l-.87.18c-1.1.23-2.19.47-3.28.73l-.56.14c-1.23.3-2.46.62-3.67,1l-.77.22q-3.75,1.08-7.38,2.38l-.66.24c-1.2.44-2.39.89-3.56,1.36l-.41.17c-1.1.45-2.19.92-3.27,1.39l-.52.23q-1.71.76-3.39,1.59l-.64.31c-1.06.53-2.12,1.07-3.17,1.63l-.24.12c-1.09.58-2.16,1.19-3.23,1.8l-.73.42c-1,.62-2.09,1.24-3.11,1.88l-.37.24q-1.4.88-2.76,1.8l-.71.48c-1,.66-1.93,1.34-2.88,2l-.65.48c-.83.62-1.66,1.24-2.48,1.88l-.53.41c-.92.72-1.83,1.47-2.73,2.22l-.66.56c-.92.78-1.83,1.56-2.72,2.37A43.55,43.55,0,0,0,69.56,217.21Z"/><path class="cls-3" d="M90.37,149.49l1-.12c1.17-.14,2.34-.26,3.51-.37l1.18-.1c1.28-.11,2.56-.19,3.85-.25l1,0c1.39-.06,2.79-.1,4.19-.1H238.62q1.49,0,3,0c1.71,0,3.41.11,5.11.21l2.07.15c1,.07,2.07.14,3.09.24l2.2.23c1,.11,2,.22,2.95.35l2.25.31c.47.07.94.12,1.4.2a67,67,0,0,0-10.16-23.13l-.17-.25q-.65-.93-1.32-1.83c-.15-.2-.31-.4-.46-.61-.38-.49-.76-1-1.15-1.45l-.48-.6q-.67-.82-1.38-1.62c-.1-.1-.19-.21-.28-.32-.57-.64-1.16-1.27-1.76-1.89l-.34-.35c-.49-.5-1-1-1.48-1.47l-.53-.5c-.47-.45-1-.88-1.43-1.31l-.5-.44c-1.29-1.13-2.62-2.2-4-3.23l-.55-.4c-.51-.37-1-.74-1.56-1.1l-.65-.45c-.55-.36-1.1-.72-1.66-1.07l-.51-.33c-.72-.44-1.45-.88-2.2-1.3l-.44-.24a67.12,67.12,0,0,0-32.72-8.47H152a67,67,0,0,0-32.55,8.38l-.84.47c-.54.3-1.07.62-1.59.93l-.59.36c-.71.44-1.41.9-2.1,1.36l-.52.36c-.54.37-1.06.74-1.58,1.12l-.66.49q-.74.56-1.47,1.14l-.56.44c-1.33,1.08-2.63,2.22-3.87,3.39l-.4.39c-.5.48-1,1-1.47,1.46-.15.14-.29.29-.44.44-.51.54-1,1.09-1.52,1.64l-.22.25q-1.77,2-3.39,4.12l-.23.31c-.47.62-.93,1.26-1.37,1.9l-.2.28a67.11,67.11,0,0,0-10.14,23l.62-.09C88.05,149.81,89.21,149.64,90.37,149.49Z"/><path class="cls-3" d="M251.86,149.13l2.2.23Z"/><path class="cls-3" d="M257,149.71l2.25.31Z"/><path class="cls-3" d="M246.7,148.74l2.07.15Z"/><path class="cls-3" d="M94.86,149c-1.17.11-2.34.23-3.51.37C92.52,149.23,93.69,149.11,94.86,149Z"/><path class="cls-3" d="M90.37,149.49c-1.16.15-2.32.32-3.47.51C88.05,149.81,89.21,149.64,90.37,149.49Z"/><path class="cls-3" d="M99.89,148.65c-1.29.06-2.57.14-3.85.25C97.32,148.79,98.6,148.71,99.89,148.65Z"/><path class="cls-3" d="M105.08,148.51c-1.4,0-2.8,0-4.19.1C102.28,148.55,103.68,148.51,105.08,148.51Z"/><path class="cls-5" d="M1.14,211.89l-1-.57v2.55c.27-.57.55-1.13.83-1.7C1.05,212.08,1.09,212,1.14,211.89Z"/><path class="cls-5" d="M.17,213.87v0c.28-.57.55-1.15.83-1.72C.72,212.74.44,213.3.17,213.87Z"/><path class="cls-6" d="M98,124.91l.23-.31q1.62-2.13,3.39-4.12l.22-.25c.5-.55,1-1.1,1.52-1.64.15-.15.29-.3.44-.44.48-.5,1-1,1.47-1.46l.4-.39c1.24-1.17,2.54-2.31,3.87-3.39l.56-.44q.73-.59,1.47-1.14l.66-.49c.52-.38,1-.75,1.58-1.12l.52-.36c.69-.46,1.39-.92,2.1-1.36l.59-.36c.52-.31,1-.63,1.59-.93l.84-.47.65-.37C95.81,92.05,79.87,69,79.87,42.86a16.76,16.76,0,0,0-33.51,0c0,35.1,19,66.43,48.48,86.61.51-.81,1-1.6,1.58-2.38l.2-.28C97.06,126.17,97.52,125.53,98,124.91Z"/><path class="cls-6" d="M105.66,116.3l-.4.39Z"/><path class="cls-6" d="M103.35,118.59c.15-.15.29-.3.44-.44C103.64,118.29,103.5,118.44,103.35,118.59Z"/><path class="cls-6" d="M119.44,106.24l-.84.47Z"/><path class="cls-6" d="M98.22,124.6l-.23.31Z"/><path class="cls-6" d="M101.83,120.23l-.22.25Z"/><path class="cls-6" d="M117,107.64l-.59.36Z"/><path class="cls-6" d="M114.32,109.36l-.52.36Z"/><path class="cls-6" d="M110.09,112.47l-.56.44Z"/><path class="cls-6" d="M112.22,110.84l-.66.49Z"/><path class="cls-6" d="M96.42,127.09l.2-.28Z"/><path class="cls-6" d="M230.3,107.87l.51.33c.56.35,1.11.71,1.66,1.07l.65.45c.53.36,1,.73,1.56,1.1l.55.4c1.37,1,2.7,2.1,4,3.23l.5.44c.48.43,1,.86,1.43,1.31l.53.5c.5.48,1,1,1.48,1.47l.34.35c.6.62,1.19,1.25,1.76,1.89.09.11.18.22.28.32q.71.8,1.38,1.62l.48.6c.39.48.77,1,1.15,1.45.15.21.31.41.46.61.45.61.89,1.21,1.32,1.83l.17.25c.43.61.84,1.24,1.24,1.86,29.09-20.18,47.76-51.28,47.76-86.09a16.76,16.76,0,0,0-33.51,0c0,25.91-15.71,48.85-39.69,62.72.46.24.91.5,1.36.75l.44.24C228.85,107,229.58,107.43,230.3,107.87Z"/><path class="cls-6" d="M243.16,118.17l.34.35Z"/><path class="cls-6" d="M235.23,111.22l-.55-.4Z"/><path class="cls-6" d="M230.81,108.2l-.51-.33Z"/><path class="cls-6" d="M227.66,106.33l.44.24Z"/><path class="cls-6" d="M239.72,114.89l-.5-.44Z"/><path class="cls-6" d="M250.5,127.09l-.17-.25Z"/><path class="cls-6" d="M233.12,109.72l-.65-.45Z"/><path class="cls-6" d="M249,125c-.15-.2-.31-.4-.46-.61C248.7,124.61,248.86,124.81,249,125Z"/><path class="cls-6" d="M241.68,116.7l-.53-.5Z"/><path class="cls-6" d="M247.4,123l-.48-.6Z"/><path class="cls-6" d="M245.54,120.73c-.1-.1-.19-.21-.28-.32C245.35,120.52,245.44,120.63,245.54,120.73Z"/><path class="cls-1" d="M.17,1.69H.1V211.28l.07,0Z"/><path class="cls-1" d="M.17,267.53l-.07-.06v6a.23.23,0,0,0,.07-.07Z"/><path class="cls-2" d="M.17,333.37v-60a.23.23,0,0,1-.07.07v59.91Z"/><path class="cls-5" d="M.17,213.89c0,.06-.05.11-.07.16v53.42l.07.06Z"/><path class="cls-5" d="M.17,213.87v-2.55l-.07,0V214A.77.77,0,0,0,.17,213.87Z"/><path class="cls-5" d="M.1,214v0c0-.05,0-.1.07-.16v0A.77.77,0,0,1,.1,214Z"/></g></svg>